<?xml version="1.0" encoding="UTF-8" standalone="no"?>
<!DOCTYPE svg PUBLIC "-//W3C//DTD SVG 1.1//EN" "http://www.w3.org/Graphics/SVG/1.1/DTD/svg11.dtd">
<svg width="100%" height="100%" viewBox="0 0 885 379" version="1.1" xmlns="http://www.w3.org/2000/svg" xmlns:xlink="http://www.w3.org/1999/xlink" xml:space="preserve" xmlns:serif="http://www.serif.com/" style="fill-rule:evenodd;clip-rule:evenodd;stroke-linejoin:round;stroke-miterlimit:2;">
    <g transform="matrix(1,0,0,1,-501,-752.343889)">
        <g>
            <g transform="matrix(3.38488,0,0,3.38488,-951.56701,-1794.249687)">
                <path d="M638.219,752.603C667.421,754.374 690.591,778.651 690.591,808.295C690.591,839.09 665.59,864.091 634.795,864.091C633.719,864.091 632.649,864.06 631.588,864L429.134,864C429.134,757.784 519.678,752.344 519.678,752.344L635.344,752.344C636.36,752.344 637.317,752.435 638.219,752.603Z" style="fill:rgb(255,0,0);"/>
            </g>
            <g transform="matrix(1,0,0,1,671,852)">
                <path d="M18.497,115.997C42.058,116.532 49.249,125.946 47.792,145.546C47.539,148.956 42.37,158.841 34.529,161.569C29.719,163.242 33.117,164.974 36.931,171.249C37.93,172.892 40.751,175.368 44.93,182.25C46.149,184.257 57.316,196.718 53.667,196.926C39.605,197.725 39.016,196.618 38.443,195.538C38.016,194.735 16.774,164.268 16.627,164.232C14.381,163.679 15.083,165.496 15.021,192.5C15.005,199.622 11.622,197.146 4.511,197.009C1.6,196.954 2.144,195.334 2.144,164.5C2.144,117.237 1.931,116.515 3.381,116.14C3.824,116.026 14.778,116.076 18.497,115.997L19.511,128.004C19.127,128.009 15.093,128.063 14.967,129.547C14.229,138.237 14.955,149.845 15.066,151.606C15.237,154.347 21.443,152.227 21.465,152.225C22.758,152.12 34.581,151.162 35.099,143.448C35.847,132.317 33.048,129.542 19.511,128.004L18.497,115.997Z" style="fill:white;fill-opacity:0.99;"/>
                <path d="M506.496,115.999C527.651,116.51 532.114,123.352 535.557,135.481C538.166,144.672 532.156,153.087 531.256,154.347C524.656,163.59 516.653,160.508 520.126,164.745C527.004,173.132 525.867,173.87 532.689,182.35C543.216,195.436 542.775,196.882 541.419,197.078C539.843,197.305 530.459,197.033 529.507,197.005C524.678,196.865 520.213,186.001 514.308,178.651C511.279,174.88 502.764,160.058 502.758,165.543C502.725,195.305 503.816,196.311 501.614,196.865C501.419,196.914 492.065,197.06 491.397,196.88C489.873,196.469 490.067,195.711 490.067,122.5C490.067,119.111 489.184,116.088 492.484,116.061C498.089,116.016 497.985,116.125 503.501,116.061C503.741,116.058 503.723,116.057 506.496,115.999L507.512,128.007C507.123,128.01 503.099,128.049 502.897,129.545C502.881,129.668 502.881,143.304 502.881,144.5C502.881,150.409 500.66,153.797 506.552,152.949C512.87,152.04 523.454,151.016 523.095,139.507C522.753,128.564 509.118,128.19 507.512,128.007L506.496,115.999Z" style="fill:white;fill-opacity:0.99;"/>
                <path d="M94.998,164.482C94.776,162.568 94.801,162.575 94.759,162.415C92.986,155.777 95.008,149.743 95.039,149.456C96.094,139.672 97.398,140.077 100.038,135.261C114.029,109.735 146.71,111.142 159.226,120.841C170.002,129.193 170.639,130.801 168.209,133.21C163.204,138.172 161.799,142.838 158.08,136.763C155.088,131.876 143.698,127.118 141.456,126.946C104.216,124.09 95.996,168.836 123.356,182.781C148.156,195.422 160.169,170.842 158.588,167.415C158.055,166.259 142.873,167.113 141.432,166.806C139.11,166.313 139.307,154.653 141.436,154.207C141.872,154.116 172.137,154.17 172.584,154.195C175.339,154.354 172.869,171.784 169.92,177.696C152.495,212.621 100.234,200.818 94.998,164.482Z" style="fill:white;fill-opacity:0.98;"/>
                <path d="M201.005,174.5C201.005,193.019 201.431,196.758 199.604,196.879C188.617,197.61 188.365,196.483 188.164,195.584C188.085,195.227 188.086,117.767 188.164,117.416C188.633,115.314 200.371,115.228 200.877,117.4C201.221,118.878 200.369,145.459 201.419,146.573C201.657,146.825 201.7,147.217 232.496,147.144C236.815,147.134 234.677,144.523 235.1,118.487C235.147,115.607 238.541,115.85 245.491,115.989C248.055,116.04 247.911,117.633 247.917,118.486C247.963,124.654 248.46,191.688 247.865,195.595C247.565,197.564 235.663,197.84 235.151,195.589C234.784,193.974 235.711,161.578 234.588,160.418C234.013,159.823 233.91,159.793 208.5,159.832C207.931,159.833 201.973,159.842 201.411,160.422C200.839,161.011 201.005,169.196 201.005,174.5Z" style="fill:white;fill-opacity:0.99;"/>
                <path d="M356.5,197.009C352.834,196.886 351.124,198.209 351.098,194.514C351.054,188.345 350.564,119.983 351.148,117.411C351.624,115.319 363.361,115.223 363.864,117.406C364.211,118.915 363.338,145.444 364.418,146.576C364.983,147.168 365.097,147.179 390.5,147.144C395.532,147.137 395.883,148.287 397.582,146.575C399.248,144.896 396.42,116.324 399.392,116.123C410.389,115.378 410.646,116.511 410.85,117.411C410.933,117.774 410.934,195.221 410.85,195.59C410.493,197.156 410.112,196.921 408.521,196.936C404.409,196.974 398.11,198.072 398.084,194.514C397.864,165.085 399.389,159.935 395.496,159.832C393.1,159.768 368.184,159.106 365.541,159.848C362.664,160.656 364.249,174.983 363.916,194.514C363.862,197.699 360.623,196.949 356.5,197.009Z" style="fill:white;fill-opacity:0.99;"/>
                <path d="M469.5,197.009C430.43,197.009 429.565,197.289 429.204,195.57C429.139,195.258 429.138,117.749 429.205,117.43C429.732,114.919 447.893,116.387 470.5,116.061C476.397,115.976 474.892,118.597 474.859,124.501C474.828,130.139 472.087,127.918 466.5,127.918C444.787,127.917 442.188,127.495 442.074,129.403C441.118,145.399 442.045,145.829 443.367,145.975C452.736,147.008 473.227,144.804 473.819,147.4C473.857,147.569 474.142,157.731 473.44,158.441C471.791,160.108 442.264,156.999 442.07,160.407C441.96,162.335 440.797,182.764 442.456,184.54C444.126,186.328 474.629,183.331 474.816,186.42C474.855,187.08 474.85,195.243 474.815,195.577C474.645,197.184 473.931,196.502 469.5,197.009Z" style="fill:white;fill-opacity:0.99;"/>
                <path d="M567.006,163.5C567.006,182.762 566.211,185.022 569.505,185.079C585.242,185.353 599.647,184.048 599.777,186.434C600.184,193.863 600.029,196.903 597.53,196.935C594.159,196.978 557.445,197.451 555.386,196.865C553.91,196.445 554.123,195.711 554.118,122.5C554.118,121.629 552.985,116.097 556.477,116.062C559.849,116.027 596.939,115.649 598.624,116.154C600.469,116.707 600.493,127.359 598.615,127.838C596.955,128.26 568.628,127.295 567.444,128.445C567.215,128.668 565.683,145.685 568.371,145.976C577.795,146.995 598.662,144.822 598.802,147.413C599.396,158.404 598.495,158.616 597.602,158.825C595.95,159.213 568.624,158.246 567.43,159.435C567.43,159.435 567.04,163.175 567.006,163.5Z" style="fill:white;fill-opacity:0.99;"/>
                <path d="M402.001,25.519C403.859,41.501 397.877,48.196 386.363,54.218C380.925,57.062 366.897,56.877 360.776,51.201C357.227,47.909 349.769,43.828 350.16,27.487C350.36,19.103 357.719,11.85 358.789,10.794C371.854,-2.083 398.931,4.236 402.001,25.519L375.49,12.002C343.104,18.799 362.925,58.1 385.258,46.037C397.95,39.181 398.119,12.304 375.49,12.002L402.001,25.519Z" style="fill:white;fill-opacity:0.98;"/>
                <path d="M281.5,197.009C277.798,196.53 277.732,196.723 277.507,196.493C276.313,195.273 277.288,135.457 276.927,129.403C276.794,127.178 268.729,127.989 260.481,127.918C258.03,127.897 257.652,125.311 258.152,117.412C258.239,116.038 260.289,115.994 260.51,115.989C264.266,115.907 305.965,115 307.468,116.532C308.172,117.25 307.931,126.301 307.861,126.6C307.213,129.342 291.866,126.999 290.421,128.412C288.894,129.904 290.655,195.105 289.433,196.438C288.706,197.231 288.519,196.855 281.5,197.009Z" style="fill:white;fill-opacity:1;"/>
                <path d="M521.362,35.483C521.237,33.247 521.105,30.888 521.187,7.489C521.189,6.868 521.201,3.418 528.598,5.161C530.415,5.589 529.717,6.544 529.931,55.536C529.957,61.399 526.905,55.388 505.793,34.208C495.084,23.465 495.783,22.355 494.476,22.41C493.083,22.468 494.249,46.922 493.837,53.582C493.799,54.186 493.69,55.948 486.371,54.849C484.765,54.608 485.196,50.012 485.196,37.5C485.196,4.241 484.739,0.286 487.287,2.77C488.578,4.03 502.115,17.229 503.17,18.784C509.484,28.085 511.196,26.488 519.517,36.475C520.112,37.56 519.3,38.243 520.563,38.382C521.135,38.445 521.344,35.723 521.362,35.483Z" style="fill:white;fill-opacity:0.98;"/>
                <path d="M409,27.507C411.418,4.95 437.084,-4.303 454.207,12.785C456.897,15.469 450.899,21.214 448.336,18.678C430.034,0.566 414.093,22.896 417.244,33.589C423.463,54.697 444.298,49.069 447.749,39.616C449.38,35.147 445.822,37.276 437.413,36.804C435.586,36.702 436.001,30.207 436.573,29.567C437.585,28.437 437.83,28.854 455.526,29.055C458.684,29.09 457.909,32.608 457.768,34.532C457.135,43.18 450.675,49.636 449.654,50.657C440.645,59.662 424.668,54.782 423.643,54.215C406.4,44.673 408.989,29.37 409,27.507Z" style="fill:white;fill-opacity:0.98;"/>
                <path d="M74.5,197.009C69.383,196.907 67.077,198.567 67.041,193.501C66.997,187.426 66.507,119.369 66.993,117.558C67.363,116.176 68.242,116.12 68.403,116.109C79.541,115.395 79.749,116.511 79.803,117.428C79.868,118.528 79.867,194.484 79.803,195.573C79.709,197.176 78.958,196.495 74.5,197.009Z" style="fill:white;fill-opacity:1;"/>
                <path d="M79.507,22.48C79.829,22.472 80.151,22.465 80.473,22.457C81.316,21.468 82.305,20.307 91.789,10.788C97.748,4.807 98.202,4.659 106.665,5.079C110.253,5.256 103.699,10.599 89.648,24.648C83.905,30.39 89.989,31.535 92.167,34.785C96.237,40.859 96.82,40.266 97.167,40.785C103.924,50.881 108.012,52.174 107.108,54.345C106.754,55.193 100.117,55.029 99.507,55.014C94.126,54.881 82.66,35.435 80.463,34.563C78.036,33.6 78.976,38.407 78.883,52.511C78.857,56.44 70.633,55.558 70.233,53.56C70.155,53.174 70.199,6.804 70.219,6.43C70.294,5.03 76.003,5.096 76.518,5.102C79.763,5.14 79.074,9.902 78.739,21.469C78.717,22.23 79.099,21.943 79.507,22.48Z" style="fill:white;fill-opacity:0.97;"/>
                <path d="M233.5,32.013C230.309,32.33 228.928,31.313 228.85,34.505C228.404,52.814 230.106,54.837 226.528,54.946C226.01,54.962 220.291,55.135 220.199,53.57C220.137,52.516 220.137,7.258 220.195,6.42C220.301,4.864 228.83,3.333 228.854,7.486C228.915,18.181 228.08,23.785 230.381,23.982C248.25,25.508 248.614,24.058 248.977,22.611C249.656,19.904 247.873,5.753 250.403,5.16C256.921,3.631 256.955,6.92 256.961,7.476C257,11.153 257.429,51.869 257.012,53.444C256.352,55.939 249.273,55.435 249.157,53.584C248.92,49.793 249.613,33.494 248.56,32.435C247.96,31.831 241.34,32.013 233.5,32.013Z" style="fill:white;fill-opacity:0.98;"/>
                <path d="M145.495,35.006C142.861,35.349 141.897,34.835 141.821,37.504C141.387,52.871 143.065,54.832 139.531,54.945C139.011,54.962 133.272,55.146 133.176,53.577C133.124,52.72 133.086,6.823 133.178,6.413C133.582,4.606 147.373,3.835 153.724,7.024C155.202,7.766 165.361,12.868 160.571,26.53C157.979,33.92 146.874,34.886 145.495,35.006L147.567,26.975C148.033,26.816 151.898,25.495 152.721,23.613C155.99,16.141 148.468,13.547 147.593,13.245C139.428,10.43 141.583,15.923 141.82,24.497C141.929,28.413 143.634,27.166 147.567,26.975L145.495,35.006Z" style="fill:white;fill-opacity:0.98;"/>
                <path d="M283.5,55.018C275.768,55.018 268.321,55.615 268.202,53.569C268.15,52.691 268.124,6.762 268.196,6.421C268.635,4.358 269.628,4.866 294.524,5.101C298.051,5.135 298.051,12.865 294.524,12.899C283.427,13.004 276.943,11.67 276.852,15.504C276.837,16.152 276.678,22.846 277.424,23.583C278.874,25.016 295.594,22.66 295.839,25.41C295.957,26.733 296.925,31.852 293.516,31.875C283.277,31.944 276.941,30.691 276.852,34.504C276.599,45.282 276.842,46.849 278.38,46.981C286.826,47.709 296.668,46.119 296.793,48.42C296.822,48.942 297.121,54.443 295.628,54.85C294.692,55.105 294.733,54.861 283.5,55.018Z" style="fill:white;fill-opacity:0.98;"/>
                <path d="M62.006,42.49C59.605,59.212 37.32,61.099 31.422,46.531C28.65,39.684 32.142,40.424 33.444,40.097C37.027,39.198 38.123,38.814 38.906,42.439C41.107,52.628 58.786,47.226 53.033,36.751C50.223,31.634 30.096,29.919 32.202,15.458C33.665,5.416 49.883,-1.822 60.162,10.779C61.901,12.91 56.431,19.498 53.058,14.811C47.695,7.362 33.01,16.928 45.707,23.06C48.096,24.215 57.028,26.126 61.215,33.643C62.486,35.924 61.823,36.075 62.006,42.49Z" style="fill:white;fill-opacity:0.98;"/>
                <path d="M203.015,20.5C203.015,53.739 203.323,54.711 201.605,54.894C191.613,55.958 195.085,50.549 195.085,40.5C195.085,14.735 195.751,12.958 192.495,12.896C186.619,12.784 184.105,14.359 183.969,8.501C183.848,3.319 186.349,5.124 191.5,5.104C213.456,5.019 214.836,4.788 214.836,7.488C214.836,11.164 216.19,12.865 212.522,12.898C210.515,12.917 208.508,12.892 206.5,12.896C201.367,12.907 203.323,15.362 203.015,20.5Z" style="fill:white;fill-opacity:0.98;"/>
                <path d="M336.5,55.018C333.356,55.012 326.066,56.252 326.038,52.516C326.009,48.84 325.708,9.424 325.994,6.566C326.171,4.807 333.862,3.443 333.893,7.483C334.148,41.038 332.486,47.062 336.504,47.169C345.5,47.408 347.832,45.064 347.96,49.468C347.974,49.916 348.117,54.804 346.598,54.901C345.792,54.952 345.801,54.856 336.5,55.018Z" style="fill:white;fill-opacity:0.99;"/>
                <path d="M553.5,7C560.392,7.51 570.807,7.994 567.831,24.56C566.307,33.048 559.086,29.391 556.829,41.614C556.53,43.232 549.581,43.348 549.172,41.602C547.546,34.665 555.817,27.785 557.793,25.791C566.56,16.944 549.946,6.172 545.852,21.606C545.545,22.761 533.31,27.569 540.44,13.463C543.254,7.895 552.339,7.101 553.5,7Z" style="fill:white;fill-opacity:0.98;"/>
                <path d="M470.5,55.018C470.136,55.001 466.254,54.813 466.179,53.577C466.127,52.713 466.09,6.817 466.179,6.414C466.651,4.294 474.687,4.538 474.793,6.425C474.835,7.162 474.85,52.588 474.784,53.565C474.677,55.171 473.917,54.51 470.5,55.018Z" style="fill:white;fill-opacity:1;"/>
                <path d="M122.012,23.5C122.012,53.831 122.341,54.707 120.606,54.892C119.932,54.965 114.107,56.211 114.08,52.513C114.054,48.824 113.761,7.973 114.143,6.395C114.56,4.669 121.902,3.633 121.939,7.478C122.017,15.505 121.868,15.445 122.012,23.5Z" style="fill:white;fill-opacity:0.98;"/>
                <path d="M553.489,55.002C544.548,54.345 547.378,45.25 552.49,45.252C559.841,45.256 560.425,53.492 553.489,55.002Z" style="fill:white;fill-opacity:0.98;"/>
                <path d="M521.362,35.483C521.344,35.723 521.135,38.445 520.563,38.382C519.3,38.243 520.112,37.56 519.517,36.475C520.132,36.145 520.747,35.814 521.362,35.483Z" style="fill:rgb(145,145,145);fill-opacity:0.07;"/>
            </g>
        </g>
    </g>
</svg>
